:FULLY-SPECIFIED
:FORCE-ALL-JOINTS-BE-3DOF
:DEGREES
136
root 7.77377 16.7154 -26.3446 -9.17755 12.0436 2.45487
lfemur -6.6596 14.3084 -18.8961
ltibia 32.5548 -0 0
lfoot -16.4929 -6.99531 -0.154373
ltoes 19.8918 -0 0
rfemur -88.3853 -27.3164 39.9239
rtibia 76.8779 -0 0
rfoot 7.27079 24.5894 0.048264
rtoes -37.465 0 0
lowerback 16.1079 -3.34064 -6.76102
upperback 5.15568 -5.46295 -0.35829
thorax -2.91883 -2.71791 4.32625
lowerneck -12.2816 -1.48138 -0.0923765
upperneck 0.796739 -2.09274 2.90396
head 2.43643 -0.937023 0.827747
lclavicle -6.60959e-015 2.14687e-014 0
lhumerus -37.7497 -22.2323 91.6768
lradius 48.7837 -0 0
lwrist 11.0084 0 0
lhand 13.0527 7.46184 0.0269222
lfingers 7.12502 -0 0
lthumb 37.986 33.0425 -0.0365964
rclavicle -6.60959e-015 2.14687e-014 0
rhumerus -46.8311 -14.1945 -59.6646
rradius 78.5853 -0 0
rwrist -9.06522 0 0
rhand -7.7516 -31.0224 3.63951
rfingers 7.12502 -0 0
rthumb 18.0771 -58.6037 3.80924
137
root 7.73163 16.6911 -26.3356 -8.88591 12.697 2.4611
lfemur -7.30222 14.7739 -18.801
ltibia 33.1103 -0 0
lfoot -16.7973 -6.49384 -0.165957
ltoes 18.1601 -0 0
rfemur -89.2782 -27.6472 40.275
rtibia 81.5741 -0 0
rfoot 8.79918 24.9495 0.014654
rtoes -37.3006 0 0
lowerback 16.0418 -3.54613 -6.96764
upperback 5.08078 -5.76904 -0.470957
thorax -2.91682 -2.86628 4.36809
lowerneck -12.2502 -1.54635 -0.218226
upperneck 0.691707 -2.16713 3.10524
head 2.40214 -0.969088 0.911587
lclavicle -6.60959e-015 2.14687e-014 0
lhumerus -37.3588 -23.1286 91.661
lradius 48.4692 -0 0
lwrist 10.7064 0 0
lhand 13.9606 7.72631 0.0179219
lfingers 7.12502 -0 0
lthumb 38.8426 33.07 -0.0416764
rclavicle -6.60959e-015 2.14687e-014 0
rhumerus -47.6904 -14.7468 -60.5878
rradius 79.9584 -0 0
rwrist -8.83751 0 0
rhand -10.8144 -32.9668 3.7489
rfingers 7.12502 -0 0
rthumb 15.1227 -60.7488 3.93365
138
root 7.68794 16.6661 -26.3262 -8.56869 13.3688 2.46217
lfemur -7.98404 15.238 -18.7028
ltibia 33.6823 -0 0
lfoot -17.0965 -5.97475 -0.173343
ltoes 16.4205 -0 0
rfemur -90.0455 -27.9765 40.5264
rtibia 86.2911 -0 0
rfoot 10.3664 25.2615 -0.0289703
rtoes -37.0002 0 0
lowerback 15.948 -3.75076 -7.16246
upperback 4.99515 -6.06994 -0.582412
thorax -2.91219 -3.01204 4.40252
lowerneck -12.2142 -1.62066 -0.3434
upperneck 0.585288 -2.25369 3.30737
head 2.36678 -1.00738 0.994988
lclavicle -6.60959e-015 2.14687e-014 0
lhumerus -36.9802 -24.0348 91.6601
lradius 48.1568 -0 0
lwrist 10.4115 0 0
lhand 14.8887 8.01206 0.00805893
lfingers 7.12502 -0 0
lthumb 39.7175 33.1089 -0.0458432
rclavicle -6.60959e-015 2.14687e-014 0
rhumerus -48.5414 -15.2984 -61.5389
rradius 81.3153 -0 0
rwrist -8.59004 0 0
rhand -13.9408 -34.9248 3.7488
rfingers 7.12502 -0 0
rthumb 12.1062 -62.9134 3.94192
139
root 7.64311 16.6406 -26.3165 -8.23013 14.0535 2.4592
lfemur -8.69567 15.7025 -18.6033
ltibia 34.2635 -0 0
lfoot -17.3836 -5.44132 -0.17609
ltoes 14.6961 -0 0
rfemur -90.6696 -28.3049 40.6703
rtibia 90.9522 -0 0
rfoot 11.9437 25.5092 -0.0796449
rtoes -36.5628 0 0
lowerback 15.8278 -3.95305 -7.34288
upperback 4.90013 -6.36312 -0.692058
thorax -2.9047 -3.15403 4.4282
lowerneck -12.1736 -1.70381 -0.466951
upperneck 0.479565 -2.35189 3.50846
head 2.33111 -1.05168 1.07717
lclavicle -6.60959e-015 2.14687e-014 0
lhumerus -36.6193 -24.9453 91.6784
lradius 47.8521 -0 0
lwrist 10.1284 0 0
lhand 15.8297 8.31939 -0.00219439
lfingers 7.12502 -0 0
lthumb 40.6041 33.1601 -0.0489
rclavicle -6.60959e-015 2.14687e-014 0
rhumerus -49.373 -15.8449 -62.5062
rradius 82.6449 -0 0
rwrist -8.32844 0 0
rhand -17.0852 -36.8701 3.6388
rfingers 7.12502 -0 0
rthumb 9.07226 -65.0678 3.83303
140
root 7.59758 16.615 -26.3063 -7.87445 14.7453 2.45316
lfemur -9.42769 16.1687 -18.504
ltibia 34.8463 -0 0
lfoot -17.6521 -4.89687 -0.173922
ltoes 13.01 -0 0
rfemur -91.1323 -28.6324 40.6991
rtibia 95.481 -0 0
rfoot 13.5025 25.6764 -0.133214
rtoes -35.9872 0 0
lowerback 15.6821 -4.15146 -7.50632
upperback 4.79707 -6.64604 -0.799323
thorax -2.89412 -3.29108 4.44375
lowerneck -12.1288 -1.79532 -0.587932
upperneck 0.376628 -2.46124 3.70662
head 2.29588 -1.10178 1.15734
lclavicle -6.60959e-015 2.14687e-014 0
lhumerus -36.2817 -25.8545 91.7207
lradius 47.5603 -0 0
lwrist 9.86123 0 0
lhand 16.7766 8.64859 -0.0123172
lfingers 7.12502 -0 0
lthumb 41.4956 33.2247 -0.0506749
rclavicle -6.60959e-015 2.14687e-014 0
rhumerus -50.1744 -16.3814 -63.4786
rradius 83.9361 -0 0
rwrist -8.05837 0 0
rhand -20.2025 -38.777 3.4239
rfingers 7.12502 -0 0
rthumb 6.06541 -67.1826 3.61189
141
root 7.55176 16.5894 -26.2956 -7.5059 15.4386 2.44487
lfemur -10.1707 16.6382 -18.4065
ltibia 35.4235 -0 0
lfoot -17.8951 -4.34469 -0.166734
ltoes 11.3854 -0 0
rfemur -91.4157 -28.9586 40.6046
rtibia 99.8006 -0 0
rfoot 15.0142 25.7471 -0.184521
rtoes -35.2723 0 0
lowerback 15.5118 -4.34444 -7.65021
upperback 4.68732 -6.91617 -0.903656
thorax -2.88022 -3.42204 4.4478
lowerneck -12.0801 -1.89469 -0.705396
upperneck 0.27858 -2.58126 3.89995
head 2.26185 -1.15746 1.23472
lclavicle -6.60959e-015 2.14687e-014 0
lhumerus -35.9734 -26.7566 91.7918
lradius 47.2869 -0 0
lwrist 9.61457 0 0
lhand 17.7225 9.00002 -0.0217277
lfingers 7.12502 -0 0
lthumb 42.3851 33.3035 -0.0510142
rclavicle -6.60959e-015 2.14687e-014 0
rhumerus -50.935 -16.9022 -64.4453
rradius 85.1779 -0 0
rwrist -7.78547 0 0
rhand -23.2482 -40.6204 3.11441
rfingers 7.12502 -0 0
rthumb 3.12921 -69.2296 3.28916
142
root 7.50607 16.564 -26.2842 -7.12875 16.1277 2.43496
lfemur -10.9152 17.1122 -18.3123
ltibia 35.9876 -0 0
lfoot -18.106 -3.78808 -0.154585
ltoes 9.84536 -0 0
rfemur -91.5011 -29.2816 40.3783
rtibia 103.835 -0 0
rfoot 16.4503 25.7058 -0.227689
rtoes -34.4171 0 0
lowerback 15.318 -4.53038 -7.772
upperback 4.57219 -7.17093 -1.00454
thorax -2.86276 -3.54573 4.43897
lowerneck -12.0277 -2.00146 -0.818395
upperneck 0.187542 -2.7115 4.08653
head 2.22977 -1.21851 1.30853
lclavicle -6.60959e-015 2.14687e-014 0
lhumerus -35.7008 -27.6462 91.8972
lradius 47.0371 -0 0
lwrist 9.39281 0 0
lhand 18.6604 9.37404 -0.0297709
lfingers 7.12502 -0 0
lthumb 43.266 33.3974 -0.0497747
rclavicle -6.60959e-015 2.14687e-014 0
rhumerus -51.6446 -17.4012 -65.3953
rradius 86.3593 -0 0
rwrist -7.51538 0 0
rhand -26.1793 -42.3774 2.72546
rfingers 7.12502 -0 0
rthumb 0.305811 -71.1821 2.88084
143
root 7.46093 16.5391 -26.2721 -6.74732 16.8068 2.42388
lfemur -11.6518 17.5921 -18.2226
ltibia 36.5313 -0 0
lfoot -18.278 -3.23034 -0.137698
ltoes 8.41301 -0 0
rfemur -91.3701 -29.5987 40.0116
rtibia 107.506 -0 0
rfoot 17.7822 25.537 -0.256465
rtoes -33.4205 0 0
lowerback 15.1015 -4.70762 -7.86918
upperback 4.45302 -7.40778 -1.10146
thorax -2.84149 -3.66099 4.41589
lowerneck -11.9718 -2.11513 -0.925983
upperneck 0.105645 -2.85152 4.26442
head 2.2004 -1.28474 1.37796
lclavicle -6.60959e-015 2.14687e-014 0
lhumerus -35.4703 -28.5176 92.0426
lradius 46.8163 -0 0
lwrist 9.20034 0 0
lhand 19.5831 9.77105 -0.035705
lfingers 7.12502 -0 0
lthumb 44.1315 33.5075 -0.0468147
rclavicle -6.60959e-015 2.14687e-014 0
rhumerus -52.2931 -17.8715 -66.3182
rradius 87.4693 -0 0
rwrist -7.25376 0 0
rhand -28.9539 -44.0271 2.27641
rfingers 7.12502 -0 0
rthumb -2.36434 -73.0161 2.40754
144
root 7.41676 16.5148 -26.2591 -6.36594 17.4704 2.4119
lfemur -12.3711 18.0791 -18.1387
ltibia 37.0472 -0 0
lfoot -18.4044 -2.67472 -0.116451
ltoes 7.11148 -0 0
rfemur -91.0039 -29.9054 39.4956
rtibia 110.739 -0 0
rfoot 18.9812 25.2254 -0.264655
rtoes -32.2813 0 0
lowerback 14.8633 -4.87445 -7.93924
upperback 4.33111 -7.62415 -1.19396
thorax -2.81617 -3.76664 4.37721
lowerneck -11.9129 -2.23524 -1.02721
upperneck 0.0350424 -3.00088 4.43167
head 2.17451 -1.35593 1.44223
lclavicle -6.60959e-015 2.14687e-014 0
lhumerus -35.2887 -29.3649 92.2339
lradius 46.6299 -0 0
lwrist 9.04158 0 0
lhand 20.4839 10.1915 -0.0386887
lfingers 7.12502 -0 0
lthumb 44.9747 33.6347 -0.0419843
rclavicle -6.60959e-015 2.14687e-014 0
rhumerus -52.8709 -18.3059 -67.2033
rradius 88.4968 -0 0
rwrist -7.00625 0 0
rhand -31.532 -45.5513 1.79012
rfingers 7.12502 -0 0
rthumb -4.84266 -74.7099 1.89373
145
root 7.37398 16.4914 -26.2453 -5.98902 18.1128 2.3991
lfemur -13.0635 18.5745 -18.0615
ltibia 37.5279 -0 0
lfoot -18.4785 -2.12451 -0.0913623
ltoes 5.96388 -0 0
rfemur -90.3838 -30.1956 38.8216
rtibia 113.456 -0 0
rfoot 20.0184 24.7559 -0.246624
rtoes -30.9985 0 0
lowerback 14.6043 -5.02912 -7.97973
upperback 4.20776 -7.81746 -1.28158
thorax -2.78658 -3.86151 4.32155
lowerneck -11.8511 -2.36131 -1.12113
upperneck -0.0220969 -3.15919 4.58632
head 2.15286 -1.43188 1.50054
lclavicle -6.60959e-015 2.14687e-014 0
lhumerus -35.1632 -30.1825 92.4775
lradius 46.4833 -0 0
lwrist 8.92096 0 0
lhand 21.3556 10.6358 -0.0377666
lfingers 7.12502 -0 0
lthumb 45.789 33.78 -0.0351137
rclavicle -6.60959e-015 2.14687e-014 0
rhumerus -53.3685 -18.6967 -68.0403
rradius 89.4307 -0 0
rwrist -6.77849 0 0
rhand -33.8749 -46.9343 1.29199
rfingers 7.12502 -0 0
rthumb -7.09237 -76.2448 1.36667
